<svg 
 xmlns="http://www.w3.org/2000/svg"
 xmlns:xlink="http://www.w3.org/1999/xlink"
 width="4px" height="19px">
<path fill-rule="evenodd"  fill="rgb(102, 102, 102)"
 d="M2.986,18.976 L1.476,18.976 C0.917,18.976 0.464,18.523 0.464,17.964 L0.464,16.382 C0.464,15.823 0.917,15.370 1.476,15.370 L2.986,15.370 C3.544,15.370 3.997,15.823 3.997,16.382 L3.997,17.964 C3.997,18.523 3.544,18.976 2.986,18.976 ZM2.986,11.359 L1.476,11.359 C0.917,11.359 0.464,10.906 0.464,10.348 L0.464,8.765 C0.464,8.206 0.917,7.753 1.476,7.753 L2.986,7.753 C3.544,7.753 3.997,8.206 3.997,8.765 L3.997,10.348 C3.997,10.906 3.544,11.359 2.986,11.359 ZM2.986,3.742 L1.476,3.742 C0.917,3.742 0.464,3.289 0.464,2.731 L0.464,1.148 C0.464,0.589 0.917,0.136 1.476,0.136 L2.986,0.136 C3.544,0.136 3.997,0.589 3.997,1.148 L3.997,2.731 C3.997,3.289 3.544,3.742 2.986,3.742 Z"/>
</svg>