<?xml version="1.0" encoding="UTF-8"?>
<svg id="Layer_1" data-name="Layer 1" xmlns="http://www.w3.org/2000/svg" viewBox="0 0 22.03 24.41">
  <defs>
    <style>
      .cls-1 {
        fill: #fff;
      }
    </style>
  </defs>
  <path class="cls-1" d="m18.98,18.31c-.77,0-1.47.3-2.01.77l-10.93-6.31c.04-.19.06-.38.06-.57s-.02-.38-.06-.56l10.93-6.31c.54.47,1.23.77,2,.77,1.68,0,3.05-1.36,3.05-3.05s-1.36-3.05-3.05-3.05-3.05,1.36-3.05,3.05c0,.19.02.37.05.54l-10.94,6.32c-.54-.47-1.23-.76-1.99-.76-1.68,0-3.05,1.36-3.05,3.05s1.36,3.05,3.05,3.05c.76,0,1.45-.29,1.98-.75l10.96,6.33c-.03.17-.05.35-.05.53,0,1.68,1.36,3.05,3.05,3.05s3.05-1.36,3.05-3.05-1.36-3.05-3.05-3.05Z"/>
</svg>