<?xml version="1.0" encoding="UTF-8"?>
<svg id="Layer_1" data-name="Layer 1" xmlns="http://www.w3.org/2000/svg" viewBox="0 0 21.96 21.95">
  <defs>
    <style>
      .cls-1 {
        fill: #fff;
      }
    </style>
  </defs>
  <path class="cls-1" d="m6.82,4.23h0s0,0,0,0v11.54c-.84-.33-1.87-.45-2.96-.26-2.45.42-4.13,2.15-3.82,3.93.31,1.78,2.47,2.84,4.92,2.42,2.14-.37,3.69-1.73,3.85-3.26h.02V5.75l11.14-3.11v1.6h0v7.8c-.84-.33-1.86-.45-2.96-.26-2.45.42-4.13,2.15-3.82,3.93.31,1.78,2.47,2.84,4.92,2.42,2.3-.4,3.9-1.95,3.84-3.61h.02v-1.19h0V0L6.82,4.23Zm-2.2,15.65c-1.47.25-2.52-.3-2.61-.79s.73-1.36,2.19-1.62c1.47-.25,2.52.3,2.61.79.08.49-.73,1.36-2.19,1.62Zm13.14-3.74c-1.47.25-2.52-.3-2.61-.79-.08-.49.73-1.36,2.19-1.62s2.52.3,2.61.79-.73,1.36-2.19,1.62Z"/>
</svg>