<?xml version="1.0" encoding="UTF-8"?>
<svg id="Layer_1" data-name="Layer 1" xmlns="http://www.w3.org/2000/svg" viewBox="0 0 31.84 25.54">
  <defs>
    <style>
      .cls-1 {
        fill: #fff;
      }
    </style>
  </defs>
  <path class="cls-1" d="m30.78,13.65c.67-.54,1.06-1.33,1.06-2.17,0-1.58-1.35-2.86-3-2.86h-6.44c-.55,0-1-.39-1-.86,0-.15.05-.29.14-.42l.1-.18c.31-.49.48-1.05.48-1.62v-2.53c0-1.65-1.28-3-2.86-3s-2.86,1.35-2.86,3v2.06c-.08.6-.34,1.29-.54,1.44-.24.19-.68.5-1.37.9l-1.36.58-1.72.61-.07.02c-.52-.89-1.48-1.49-2.58-1.49H3c-1.65,0-3,1.35-3,3v11.62c0,1.65,1.35,3,3,3h5.75c1.09,0,2.04-.59,2.56-1.46,1.14.77,1.63,1,1.92,1.13.17.1.37.22,5.15,1.06l6.08.06h.16c.08,0,.15,0,.23,0h2.53c1.65,0,3-1.28,3-2.86,0-.56-.17-1.1-.49-1.56.67-.54,1.06-1.33,1.06-2.17,0-.62-.21-1.21-.6-1.71.57-.53.9-1.26.9-2.04,0-.56-.17-1.1-.49-1.56Zm-21.03,8.1c0,.55-.45,1-1,1H3c-.55,0-1-.45-1-1v-11.62c0-.55.45-1,1-1h5.75c.55,0,1,.45,1,1v11.62Zm19.09-9.41h-1.57l-.23,2.01h1.21c.55,0,1,.39,1,.86s-.45.86-1,.86h-1.41l-.23,2.02h1.34c.55,0,1,.39,1,.86s-.45.86-1,.86h-1.53l-.23,2.01h1.18c.55,0,1,.39,1,.86s-.45.86-1,.86h-4.42s-4.4-.05-4.4-.05c-1.85-.33-4-.74-4.37-.83-.05-.03-.11-.05-.18-.09-.2-.09-.71-.33-2.15-1.34v-10.74l1.97-.65,1.53-.65s.95-.53,1.71-1.12c.74-.57,1.07-1.66,1.21-2.3.03-.13.07-.25.1-.39v-2.39c0-.55.39-1,.86-1s.86.45.86,1v2.53c0,.31-.13.54-.23.67h-.01c-.02.05-.04.09-.07.12,0,.01-.01.02-.02.03h0s-.01.07-.03.11c-.02.03-.04.07-.06.1-.19.38-.29.78-.29,1.19,0,1.58,1.35,2.86,3,2.86h6.44c.55,0,1,.39,1,.86s-.45.86-1,.86Z"/>
</svg>