<?xml version="1.0" encoding="UTF-8"?>
<svg id="Icons" xmlns="http://www.w3.org/2000/svg" viewBox="0 0 14.14 13.47">
  <defs>
    <style>
      .cls-1 {
        fill: #fff;
      }
    </style>
  </defs>
  <path class="cls-1" d="m10.96.03c-.23-.02-.44-.03-.64-.03-1.6,0-2.37.69-3.25,1.74-.88-1.05-1.65-1.74-3.25-1.74-.2,0-.41.01-.64.03C1.79.17.19,1.44,0,3.87v.81c.18,2.33,1.94,5.2,7.07,8.79,5.13-3.6,6.89-6.47,7.07-8.79v-.81c-.2-2.43-1.8-3.7-3.18-3.83Zm1.63,4.58c-.19,2.03-2.04,4.37-5.52,6.95C3.59,8.98,1.73,6.64,1.54,4.61v-.68c.15-1.62,1.15-2.3,1.79-2.36.17-.02.34-.03.49-.03.92,0,1.3.28,2.06,1.19l1.18,1.41,1.19-1.41c.76-.91,1.14-1.19,2.06-1.19.15,0,.31,0,.49.03.64.06,1.63.74,1.79,2.36v.68Z"/>
</svg>