<?xml version="1.0" encoding="UTF-8"?>
<svg id="Layer_1" data-name="Layer 1" xmlns="http://www.w3.org/2000/svg" viewBox="0 0 22.06 24.86">
  <defs>
    <style>
      .cls-1 {
        fill: #fff;
      }
    </style>
  </defs>
  <path class="cls-1" d="m11.02,7.54c.55,0,1-.4,1-.89V.89c0-.49-.45-.89-1-.89s-1,.4-1,.89v5.76c0,.49.45.89,1,.89Z"/>
  <path class="cls-1" d="m14.02,3.22v2.1c3.51,1.24,6.05,4.58,6.05,8.51,0,4.98-4.05,9.03-9.03,9.03S2,18.81,2,13.83c0-3.92,2.52-7.25,6.02-8.5v-2.1C3.4,4.55,0,8.8,0,13.83c0,6.08,4.95,11.03,11.03,11.03s11.03-4.95,11.03-11.03c0-5.05-3.41-9.3-8.05-10.61Z"/>
</svg>