<?xml version="1.0" encoding="UTF-8"?>
<svg id="Isolation_Mode" data-name="Isolation Mode" xmlns="http://www.w3.org/2000/svg" viewBox="0 0 2.55 3.05">
  <defs>
    <style>
      .cls-1 {
        fill: #fff;
        fill-rule: evenodd;
      }
    </style>
  </defs>
  <path class="cls-1" d="m.33,1.31h.12v-.48c0-.23.09-.44.24-.59.15-.15.36-.24.59-.24h0c.23,0,.44.09.59.24.15.15.24.36.24.59v.48h0s.12,0,.12,0c.18,0,.33.15.33.33v1.08c0,.18-.15.33-.33.33H.33c-.18,0-.33-.15-.33-.33v-1.08c0-.18.15-.33.33-.33H.33Zm.95,1.27c.13,0,.24-.11.24-.26,0-.09-.05-.18-.12-.22.04-.04.06-.09.06-.14,0-.11-.08-.19-.18-.19s-.18.09-.18.19c0,.06.02.11.06.14-.07.04-.12.13-.12.22,0,.14.11.26.24.26h0Zm-.51-1.27h1.01v-.48c0-.14-.06-.27-.15-.36-.09-.09-.22-.15-.36-.15h0c-.14,0-.27.06-.36.15-.09.09-.15.22-.15.36v.48h0Z"/>
</svg>