<svg 
 xmlns="http://www.w3.org/2000/svg"
 xmlns:xlink="http://www.w3.org/1999/xlink"
 width="143px" height="145px">
<defs>
<linearGradient id="PSgrad_0" x1="0%" x2="0%" y1="100%" y2="0%">
  <stop offset="0%" stop-color="rgb(0,33,160)" stop-opacity="1" />
  <stop offset="100%" stop-color="rgb(0,96,255)" stop-opacity="1" />
</linearGradient>

</defs>
<path fill-rule="evenodd"  fill="rgb(212, 37, 98)"
 d="M71.508,0.008 C110.993,0.008 143.001,32.464 143.001,72.501 C143.001,112.538 110.993,144.995 71.508,144.995 C32.023,144.995 0.014,112.538 0.014,72.501 C0.014,32.464 32.023,0.008 71.508,0.008 Z"/>
<path fill="url(#PSgrad_0)"
 d="M71.508,0.008 C110.993,0.008 143.001,32.464 143.001,72.501 C143.001,112.538 110.993,144.995 71.508,144.995 C32.023,144.995 0.014,112.538 0.014,72.501 C0.014,32.464 32.023,0.008 71.508,0.008 Z"/>
<path fill-rule="evenodd"  fill="rgb(255, 255, 255)"
 d="M89.381,70.039 L65.550,53.561 C65.181,53.307 64.770,53.180 64.358,53.180 C63.946,53.180 63.536,53.307 63.167,53.561 C62.429,54.072 61.975,55.014 61.975,56.034 L61.975,88.988 C61.975,90.008 62.429,90.950 63.167,91.460 C63.536,91.714 63.946,91.842 64.358,91.842 C64.770,91.842 65.181,91.715 65.550,91.460 L89.381,74.984 C90.119,74.473 90.573,73.532 90.573,72.511 C90.573,71.491 90.119,70.549 89.381,70.039 Z"/>
</svg>