<?xml version="1.0" encoding="UTF-8"?>
<svg id="Layer_1" data-name="Layer 1" xmlns="http://www.w3.org/2000/svg" viewBox="0 0 17.62 29.41">
  <defs>
    <style>
      .cls-1 {
        fill: #fff;
      }
    </style>
  </defs>
  <path class="cls-1" d="m3.94,14.54s0,0,0,0c0,0,0,0,0,0v.06h0c.03,2.66,2.2,4.81,4.87,4.81s4.83-2.15,4.87-4.81h0v-.04s0-.02,0-.02,0-.02,0-.02V4.9s0-.02,0-.02c0-2.69-2.18-4.88-4.88-4.88S3.94,2.18,3.94,4.88c0,0,0,0,0,.01h0v9.65Z"/>
  <path class="cls-1" d="m15.62,9.66v4.9c0,3.76-3.06,6.81-6.81,6.81s-6.81-3.06-6.81-6.81v-4.9H0v5h0c.05,4.47,3.45,8.15,7.81,8.65v6.1h2v-6.1c4.36-.49,7.76-4.17,7.81-8.65h0v-5h-2Z"/>
</svg>