<?xml version="1.0" encoding="UTF-8"?>
<svg id="Layer_3" data-name="Layer 3" xmlns="http://www.w3.org/2000/svg" viewBox="0 0 23.5 23.5">
  <defs>
    <style>
      .cls-1 {
        fill: #f2eee8;
      }
    </style>
  </defs>
  <path class="cls-1" d="m13.04,23.5h-2.57c-.94,0-1.7-.76-1.7-1.7v-1.66l-.8-.31-1.21,1.14c-.64.64-1.76.64-2.4,0l-1.82-1.82c-.32-.32-.5-.75-.5-1.2s.18-.88.5-1.2l1.17-1.17-.34-.79-1.66-.04c-.94,0-1.7-.76-1.7-1.7v-2.57c0-.94.76-1.7,1.7-1.7h1.66l.31-.8-1.14-1.21c-.32-.32-.5-.75-.5-1.2s.18-.88.5-1.2l1.81-1.82c.64-.64,1.77-.64,2.41,0l1.17,1.17.78-.34.05-1.66c0-.94.76-1.7,1.7-1.7h2.57c.94,0,1.7.76,1.7,1.7v1.66l.8.31,1.21-1.14c.32-.32.75-.5,1.2-.5h0c.46,0,.88.18,1.2.5l1.82,1.82c.32.32.5.75.5,1.2s-.18.88-.5,1.2l-1.17,1.17.35.78,1.66.05c.94,0,1.7.76,1.7,1.7v2.57c0,.94-.76,1.7-1.7,1.7h-1.66l-.31.8,1.14,1.21c.32.32.5.75.5,1.2s-.18.88-.5,1.2l-1.81,1.82c-.65.64-1.76.64-2.4,0l-1.18-1.18-.78.34-.05,1.66c0,.94-.76,1.7-1.7,1.7h0Zm-2.27-2h1.97v-1.36c0-.81.58-1.61,1.35-1.87l.69-.29c.19-.1.49-.17.79-.17.54,0,1.06.21,1.42.57l.96.96,1.39-1.4-.96-.96c-.57-.57-.73-1.55-.37-2.28l.28-.69c.23-.7,1.04-1.28,1.85-1.28h1.36v-1.97h-1.36c-.81,0-1.62-.58-1.87-1.35l-.29-.68c-.33-.66-.17-1.64.4-2.21l.97-.97-1.39-1.4-.96.96c-.56.56-1.56.73-2.28.37l-.69-.28c-.7-.23-1.28-1.04-1.28-1.85v-1.36h-1.97v1.36c0,.81-.58,1.62-1.35,1.87l-.68.29c-.19.1-.49.17-.79.17-.54,0-1.06-.21-1.42-.57l-.96-.96-1.39,1.4.96.96c.57.58.73,1.55.37,2.28l-.28.68c-.23.71-1.04,1.29-1.85,1.29h-1.37v1.97h1.37c.81,0,1.62.58,1.87,1.35l.29.69c.33.66.17,1.64-.4,2.21l-.96.96,1.39,1.4.96-.96c.56-.56,1.56-.73,2.28-.37l.69.28c.72.24,1.28,1.03,1.28,1.85v1.36h0Zm.99-5.36c-2.42,0-4.39-1.97-4.39-4.39s1.97-4.39,4.39-4.39,4.39,1.97,4.39,4.39-1.97,4.39-4.39,4.39h0Zm0-6.78c-1.32,0-2.39,1.07-2.39,2.39s1.07,2.39,2.39,2.39,2.39-1.07,2.39-2.39-1.07-2.39-2.39-2.39h0Z"/>
</svg>