<?xml version="1.0" encoding="UTF-8"?>
<svg id="Layer_1" data-name="Layer 1" xmlns="http://www.w3.org/2000/svg" viewBox="0 0 23.49 23.39">
  <defs>
    <style>
      .cls-1 {
        fill: #fff;
      }
    </style>
  </defs>
  <path class="cls-1" d="m23.49,9.68l-2.89-1.67.86-3.22-2.83-2.83-3.3.88-1.65-2.85h-4l-1.63,2.82-3.27-.88-2.83,2.83.87,3.25-2.85,1.64v4l2.88,1.67-.87,3.24,2.83,2.83,3.21-.86,1.64,2.85h4l1.65-2.86,3.23.87,2.83-2.83-.85-3.19,2.94-1.7v-4Zm-11.78,9.06c-3.9,0-7.08-3.18-7.08-7.08s3.18-7.08,7.08-7.08,7.08,3.18,7.08,7.08-3.18,7.08-7.08,7.08Z"/>
</svg>